<svg width="1022" height="158" viewBox="0 0 1022 158" fill="none" xmlns="http://www.w3.org/2000/svg">
<rect width="511" height="79" transform="scale(2)" fill="white"/>
<path d="M214 28H752.217V98H214V28Z" fill="#F1F4F8"/>
<path d="M264.397 80.372C261.973 78.356 260.053 75.98 258.637 73.244C257.245 70.508 256.549 67.424 256.549 63.992C256.549 60.56 257.245 57.476 258.637 54.74C260.053 52.004 261.973 49.628 264.397 47.612L266.701 49.52C264.421 51.584 262.753 53.78 261.697 56.108C260.641 58.436 260.113 61.064 260.113 63.992C260.113 66.92 260.641 69.548 261.697 71.876C262.753 74.204 264.421 76.4 266.701 78.464L264.397 80.372ZM318.787 78.464C321.067 76.4 322.735 74.204 323.791 71.876C324.847 69.548 325.375 66.92 325.375 63.992C325.375 61.064 324.847 58.436 323.791 56.108C322.735 53.78 321.067 51.584 318.787 49.52L321.091 47.612C323.515 49.628 325.423 52.004 326.815 54.74C328.231 57.476 328.939 60.56 328.939 63.992C328.939 67.424 328.231 70.508 326.815 73.244C325.423 75.98 323.515 78.356 321.091 80.372L318.787 78.464ZM415.499 80.372C413.075 78.356 411.155 75.98 409.739 73.244C408.347 70.508 407.651 67.424 407.651 63.992C407.651 60.56 408.347 57.476 409.739 54.74C411.155 52.004 413.075 49.628 415.499 47.612L417.803 49.52C415.523 51.584 413.855 53.78 412.799 56.108C411.743 58.436 411.215 61.064 411.215 63.992C411.215 66.92 411.743 69.548 412.799 71.876C413.855 74.204 415.523 76.4 417.803 78.464L415.499 80.372ZM577.818 78.464C580.098 76.4 581.766 74.204 582.822 71.876C583.878 69.548 584.406 66.92 584.406 63.992C584.406 61.064 583.878 58.436 582.822 56.108C581.766 53.78 580.098 51.584 577.818 49.52L580.122 47.612C582.546 49.628 584.454 52.004 585.846 54.74C587.262 57.476 587.97 60.56 587.97 63.992C587.97 67.424 587.262 70.508 585.846 73.244C584.454 75.98 582.546 78.356 580.122 80.372L577.818 78.464ZM652.944 80.372C650.52 78.356 648.6 75.98 647.184 73.244C645.792 70.508 645.096 67.424 645.096 63.992C645.096 60.56 645.792 57.476 647.184 54.74C648.6 52.004 650.52 49.628 652.944 47.612L655.248 49.52C652.968 51.584 651.3 53.78 650.244 56.108C649.188 58.436 648.66 61.064 648.66 63.992C648.66 66.92 649.188 69.548 650.244 71.876C651.3 74.204 652.968 76.4 655.248 78.464L652.944 80.372ZM707.334 78.464C709.614 76.4 711.282 74.204 712.338 71.876C713.394 69.548 713.922 66.92 713.922 63.992C713.922 61.064 713.394 58.436 712.338 56.108C711.282 53.78 709.614 51.584 707.334 49.52L709.638 47.612C712.062 49.628 713.97 52.004 715.362 54.74C716.778 57.476 717.486 60.56 717.486 63.992C717.486 67.424 716.778 70.508 715.362 73.244C713.97 75.98 712.062 78.356 709.638 80.372L707.334 78.464Z" fill="#D55E00"/>
<path d="M278.387 70.796C278.387 69.74 278.723 68.876 279.395 68.204C280.067 67.508 280.919 67.16 281.951 67.16C282.983 67.16 283.835 67.508 284.507 68.204C285.179 68.876 285.515 69.74 285.515 70.796C285.515 71.852 285.179 72.728 284.507 73.424C283.835 74.096 282.983 74.432 281.951 74.432C280.919 74.432 280.067 74.096 279.395 73.424C278.723 72.728 278.387 71.852 278.387 70.796ZM446.935 48.44H450.499L462.343 79.76H458.779L446.935 48.44ZM465.641 56.324H469.745L471.365 65.504C471.509 66.344 471.629 67.184 471.725 68.024C471.845 68.864 471.965 69.716 472.085 70.58H472.229C472.349 69.716 472.481 68.864 472.625 68.024C472.769 67.184 472.937 66.344 473.129 65.504L474.785 58.052H477.881L479.537 65.504C479.729 66.344 479.897 67.184 480.041 68.024C480.209 68.864 480.365 69.716 480.509 70.58H480.653C480.797 69.716 480.917 68.864 481.013 68.024C481.133 67.184 481.253 66.344 481.373 65.504L482.993 56.324H486.809L483.533 74H478.673L477.125 66.62C476.981 65.78 476.837 64.94 476.693 64.1C476.573 63.26 476.441 62.384 476.297 61.472H476.153C476.033 62.168 475.913 62.924 475.793 63.74C475.697 64.532 475.553 65.504 475.361 66.656L473.849 74H469.061L465.641 56.324ZM666.934 70.796C666.934 69.74 667.27 68.876 667.942 68.204C668.614 67.508 669.466 67.16 670.498 67.16C671.53 67.16 672.382 67.508 673.054 68.204C673.726 68.876 674.062 69.74 674.062 70.796C674.062 71.852 673.726 72.728 673.054 73.424C672.382 74.096 671.53 74.432 670.498 74.432C669.466 74.432 668.614 74.096 667.942 73.424C667.27 72.728 666.934 71.852 666.934 70.796Z" fill="#0072B2"/>
<path d="M301.953 63.632H295.545V60.608H301.953V53.804H305.121V60.608H311.529V63.632H305.121V70.436H301.953V63.632ZM560.984 63.632H554.576V60.608H560.984V53.804H564.152V60.608H570.56V63.632H564.152V70.436H560.984V63.632ZM624.806 65.216C624.662 64.4 624.698 63.668 624.914 63.02C625.13 62.372 625.43 61.784 625.814 61.256C626.198 60.728 626.642 60.248 627.146 59.816C627.65 59.36 628.118 58.916 628.55 58.484C628.982 58.052 629.342 57.62 629.63 57.188C629.942 56.732 630.098 56.24 630.098 55.712C630.098 54.848 629.798 54.152 629.198 53.624C628.622 53.096 627.818 52.832 626.786 52.832C625.946 52.832 625.19 53 624.518 53.336C623.846 53.672 623.21 54.128 622.61 54.704L620.27 52.544C621.11 51.632 622.094 50.888 623.222 50.312C624.35 49.736 625.634 49.448 627.074 49.448C628.082 49.448 629.018 49.58 629.882 49.844C630.746 50.084 631.49 50.456 632.114 50.96C632.738 51.44 633.218 52.04 633.554 52.76C633.914 53.456 634.094 54.272 634.094 55.208C634.094 55.976 633.938 56.66 633.626 57.26C633.338 57.86 632.966 58.412 632.51 58.916C632.054 59.396 631.562 59.864 631.034 60.32C630.53 60.776 630.074 61.244 629.666 61.724C629.258 62.204 628.922 62.732 628.658 63.308C628.418 63.86 628.346 64.496 628.442 65.216H624.806ZM623.69 71.192C623.69 70.232 623.99 69.464 624.59 68.888C625.19 68.312 625.934 68.024 626.822 68.024C627.71 68.024 628.454 68.312 629.054 68.888C629.654 69.464 629.954 70.232 629.954 71.192C629.954 72.176 629.654 72.968 629.054 73.568C628.454 74.144 627.71 74.432 626.822 74.432C625.934 74.432 625.19 74.144 624.59 73.568C623.99 72.968 623.69 72.176 623.69 71.192ZM685.928 69.032L689.636 63.236L683.948 60.752L684.632 58.628L690.572 60.392L690.932 53.804H693.236L693.596 60.392L699.536 58.628L700.22 60.752L694.532 63.236L698.24 69.032L696.332 70.364L692.084 64.964L687.836 70.364L685.928 69.032Z" fill="#56B4E9"/>
<path d="M343.145 58.556C343.145 57.5 343.481 56.636 344.153 55.964C344.825 55.268 345.677 54.92 346.709 54.92C347.741 54.92 348.593 55.268 349.265 55.964C349.937 56.636 350.273 57.5 350.273 58.556C350.273 59.612 349.937 60.488 349.265 61.184C348.593 61.856 347.741 62.192 346.709 62.192C345.677 62.192 344.825 61.856 344.153 61.184C343.481 60.488 343.145 59.612 343.145 58.556ZM343.145 70.796C343.145 69.74 343.481 68.876 344.153 68.204C344.825 67.508 345.677 67.16 346.709 67.16C347.741 67.16 348.593 67.508 349.265 68.204C349.937 68.876 350.273 69.74 350.273 70.796C350.273 71.852 349.937 72.728 349.265 73.424C348.593 74.096 347.741 74.432 346.709 74.432C345.677 74.432 344.825 74.096 344.153 73.424C343.481 72.728 343.145 71.852 343.145 70.796ZM364.155 79.76H360.591L372.435 48.44H375.999L364.155 79.76ZM385.741 79.76H382.177L394.021 48.44H397.585L385.741 79.76ZM601.6 79.76H598.036L609.88 48.44H613.444L601.6 79.76Z" fill="#B82629"/>
<path d="M429.921 48.512H440.217V50.78H433.125V77.204H440.217V79.472H429.921V48.512ZM540.91 77.204V50.78H533.854V48.512H544.15V79.472H533.854V77.204H540.91Z" fill="#009E73"/>
<path d="M490.107 48.44H493.671L505.515 79.76H501.951L490.107 48.44ZM515.832 70.796C515.832 69.74 516.168 68.876 516.84 68.204C517.512 67.508 518.364 67.16 519.396 67.16C520.428 67.16 521.28 67.508 521.952 68.204C522.624 68.876 522.96 69.74 522.96 70.796C522.96 71.852 522.624 72.728 521.952 73.424C521.28 74.096 520.428 74.432 519.396 74.432C518.364 74.432 517.512 74.096 516.84 73.424C516.168 72.728 515.832 71.852 515.832 70.796Z" fill="#A541F8"/>
<path d="M145.553 137.176H138.062L135.536 142H132.984L143.026 123.516H145.121L148.777 142H146.429L145.553 137.176ZM139.116 135.17H145.197L143.661 126.55L139.116 135.17ZM165.903 130.358L164.824 130.244C163.352 130.244 162.192 130.909 161.346 132.237L159.657 142H157.359L159.746 128.264L161.968 128.251L161.625 129.851C162.598 128.573 163.745 127.951 165.065 127.984C165.345 127.984 165.709 128.048 166.157 128.175L165.903 130.358ZM171.705 142.254C169.995 142.22 168.658 141.59 167.693 140.362C166.729 139.135 166.322 137.565 166.475 135.652L166.538 135.106C166.682 133.744 167.084 132.5 167.744 131.374C168.413 130.248 169.225 129.402 170.182 128.835C171.138 128.259 172.171 127.984 173.279 128.01C174.693 128.044 175.801 128.513 176.605 129.419C177.41 130.325 177.85 131.552 177.926 133.101C177.951 133.651 177.934 134.201 177.875 134.751L177.735 135.805H168.76C168.607 137.049 168.811 138.107 169.369 138.979C169.936 139.85 170.778 140.303 171.896 140.337C173.25 140.371 174.502 139.761 175.653 138.509L176.974 139.626C176.398 140.455 175.653 141.107 174.739 141.581C173.834 142.047 172.822 142.271 171.705 142.254ZM173.165 129.927C172.217 129.901 171.388 130.223 170.677 130.892C169.974 131.56 169.416 132.555 169.001 133.875L175.679 133.888L175.729 133.685C175.865 132.618 175.691 131.734 175.209 131.031C174.735 130.32 174.054 129.952 173.165 129.927ZM179.919 135.106C180.122 133.608 180.524 132.309 181.125 131.209C181.734 130.1 182.471 129.284 183.334 128.759C184.206 128.226 185.158 127.972 186.19 127.997C187.782 128.031 188.983 128.632 189.796 129.8L190.253 128.264H192.36L190.075 141.708C189.83 143.46 189.119 144.861 187.942 145.91C186.766 146.968 185.314 147.472 183.588 147.421C182.657 147.404 181.764 147.184 180.909 146.761C180.063 146.338 179.394 145.758 178.903 145.021L180.211 143.612C181.04 144.84 182.136 145.47 183.499 145.504C184.591 145.538 185.513 145.233 186.267 144.59C187.028 143.947 187.532 143.033 187.777 141.848L188.031 140.629C186.914 141.746 185.606 142.288 184.108 142.254C183.254 142.229 182.509 142 181.874 141.568C181.248 141.128 180.761 140.498 180.414 139.677C180.067 138.847 179.877 137.925 179.843 136.909C179.826 136.41 179.851 135.809 179.919 135.106ZM182.141 136.414C182.115 137.624 182.323 138.564 182.763 139.232C183.211 139.893 183.884 140.24 184.781 140.273C186.152 140.307 187.333 139.634 188.323 138.255L189.402 131.945C188.895 130.693 187.976 130.041 186.647 129.99C185.403 129.956 184.379 130.464 183.575 131.514C182.78 132.563 182.31 133.981 182.166 135.767L182.141 136.414ZM202.263 140.642C201.188 141.75 199.821 142.288 198.162 142.254C196.85 142.22 195.877 141.75 195.242 140.845C194.616 139.939 194.383 138.703 194.544 137.138L196.017 128.264H198.314L196.829 137.176C196.787 137.548 196.778 137.912 196.804 138.268C196.846 138.877 197.028 139.355 197.35 139.702C197.671 140.049 198.12 140.235 198.695 140.261C200.337 140.312 201.607 139.647 202.504 138.268L204.23 128.264H206.528L204.142 142H201.971L202.263 140.642ZM210.07 142H207.785L211.162 122.5H213.46L210.07 142ZM222.232 142C222.173 141.755 222.144 141.513 222.144 141.276L222.182 140.553C220.921 141.721 219.583 142.288 218.17 142.254C216.96 142.237 215.974 141.856 215.212 141.111C214.459 140.358 214.116 139.419 214.184 138.293C214.268 136.837 214.903 135.703 216.088 134.891C217.281 134.07 218.847 133.659 220.785 133.659L223.185 133.672L223.337 132.58C223.422 131.759 223.261 131.112 222.854 130.638C222.457 130.155 221.856 129.906 221.052 129.889C220.265 129.872 219.566 130.066 218.957 130.473C218.356 130.87 217.988 131.399 217.853 132.06L215.542 132.072C215.618 131.268 215.931 130.557 216.481 129.939C217.032 129.313 217.738 128.831 218.602 128.492C219.465 128.145 220.358 127.98 221.28 127.997C222.711 128.031 223.824 128.467 224.619 129.305C225.415 130.134 225.749 131.239 225.622 132.618L224.505 139.423L224.441 140.4C224.424 140.866 224.475 141.327 224.594 141.784L224.568 142H222.232ZM218.627 140.223C219.363 140.24 220.057 140.066 220.709 139.702C221.369 139.33 221.936 138.818 222.41 138.166L222.905 135.335L221.166 135.322C219.719 135.322 218.61 135.551 217.84 136.008C217.07 136.465 216.634 137.112 216.532 137.95C216.456 138.593 216.604 139.131 216.977 139.562C217.357 139.986 217.908 140.206 218.627 140.223ZM236.235 130.358L235.156 130.244C233.684 130.244 232.524 130.909 231.678 132.237L229.989 142H227.691L230.078 128.264L232.3 128.251L231.957 129.851C232.93 128.573 234.077 127.951 235.397 127.984C235.677 127.984 236.041 128.048 236.489 128.175L236.235 130.358ZM248.664 142.254C246.954 142.22 245.617 141.59 244.652 140.362C243.688 139.135 243.281 137.565 243.434 135.652L243.497 135.106C243.641 133.744 244.043 132.5 244.703 131.374C245.372 130.248 246.184 129.402 247.141 128.835C248.097 128.259 249.13 127.984 250.238 128.01C251.652 128.044 252.76 128.513 253.564 129.419C254.368 130.325 254.809 131.552 254.885 133.101C254.91 133.651 254.893 134.201 254.834 134.751L254.694 135.805H245.719C245.566 137.049 245.77 138.107 246.328 138.979C246.895 139.85 247.737 140.303 248.854 140.337C250.209 140.371 251.461 139.761 252.612 138.509L253.933 139.626C253.357 140.455 252.612 141.107 251.698 141.581C250.793 142.047 249.781 142.271 248.664 142.254ZM250.124 129.927C249.176 129.901 248.347 130.223 247.636 130.892C246.933 131.56 246.375 132.555 245.96 133.875L252.638 133.888L252.688 133.685C252.824 132.618 252.65 131.734 252.168 131.031C251.694 130.32 251.013 129.952 250.124 129.927ZM262.108 133.266L265.841 128.264H268.659L263.149 135.17L266.501 142H264L261.728 136.871L257.855 142H255.05L260.725 134.941L257.475 128.264H259.988L262.108 133.266ZM281.291 135.195C281.122 136.592 280.745 137.849 280.161 138.966C279.577 140.083 278.854 140.921 277.99 141.479C277.127 142.03 276.171 142.292 275.121 142.267C273.53 142.233 272.311 141.695 271.465 140.654L270.233 147.281H267.936L271.236 128.264L273.318 128.251L273.064 129.787C274.199 128.568 275.557 127.976 277.14 128.01C278.46 128.044 279.488 128.53 280.225 129.47C280.961 130.409 281.35 131.704 281.393 133.354C281.401 133.896 281.38 134.421 281.329 134.929L281.291 135.195ZM279.031 134.929L279.095 133.862C279.095 132.627 278.858 131.683 278.384 131.031C277.918 130.371 277.241 130.024 276.353 129.99C275.024 129.956 273.877 130.587 272.912 131.882L271.757 138.471C272.273 139.689 273.2 140.316 274.537 140.35C275.68 140.375 276.649 139.931 277.444 139.017C278.248 138.094 278.777 136.731 279.031 134.929ZM291.688 130.358L290.609 130.244C289.137 130.244 287.977 130.909 287.131 132.237L285.442 142H283.145L285.531 128.264L287.753 128.251L287.41 129.851C288.383 128.573 289.53 127.951 290.851 127.984C291.13 127.984 291.494 128.048 291.942 128.175L291.688 130.358ZM297.49 142.254C295.781 142.22 294.443 141.59 293.479 140.362C292.514 139.135 292.107 137.565 292.26 135.652L292.323 135.106C292.467 133.744 292.869 132.5 293.529 131.374C294.198 130.248 295.01 129.402 295.967 128.835C296.923 128.259 297.956 127.984 299.064 128.01C300.478 128.044 301.587 128.513 302.391 129.419C303.195 130.325 303.635 131.552 303.711 133.101C303.736 133.651 303.719 134.201 303.66 134.751L303.521 135.805H294.545C294.393 137.049 294.596 138.107 295.154 138.979C295.721 139.85 296.563 140.303 297.681 140.337C299.035 140.371 300.287 139.761 301.438 138.509L302.759 139.626C302.183 140.455 301.438 141.107 300.524 141.581C299.619 142.047 298.607 142.271 297.49 142.254ZM298.95 129.927C298.002 129.901 297.173 130.223 296.462 130.892C295.759 131.56 295.201 132.555 294.786 133.875L301.464 133.888L301.515 133.685C301.65 132.618 301.477 131.734 300.994 131.031C300.52 130.32 299.839 129.952 298.95 129.927ZM313.537 138.28C313.664 137.332 313.144 136.664 311.976 136.274L309.589 135.576C307.575 134.882 306.601 133.731 306.669 132.123C306.728 130.913 307.278 129.923 308.319 129.152C309.369 128.374 310.6 127.993 312.014 128.01C313.402 128.027 314.527 128.433 315.391 129.229C316.262 130.016 316.681 131.044 316.647 132.313L314.362 132.301C314.379 131.615 314.163 131.057 313.715 130.625C313.266 130.193 312.67 129.969 311.925 129.952C311.129 129.935 310.444 130.13 309.868 130.536C309.335 130.917 309.026 131.416 308.941 132.034C308.831 132.83 309.318 133.41 310.401 133.773L311.557 134.091C313.131 134.497 314.248 135.026 314.908 135.678C315.568 136.329 315.873 137.138 315.822 138.103C315.771 138.957 315.492 139.702 314.984 140.337C314.477 140.972 313.799 141.458 312.953 141.797C312.107 142.127 311.205 142.279 310.249 142.254C308.793 142.237 307.591 141.814 306.644 140.984C305.696 140.146 305.239 139.072 305.272 137.76L307.57 137.772C307.57 138.543 307.816 139.16 308.307 139.626C308.798 140.091 309.47 140.324 310.325 140.324C311.163 140.341 311.887 140.168 312.496 139.804C313.105 139.431 313.452 138.924 313.537 138.28ZM326.664 138.28C326.791 137.332 326.271 136.664 325.103 136.274L322.716 135.576C320.701 134.882 319.728 133.731 319.796 132.123C319.855 130.913 320.405 129.923 321.446 129.152C322.496 128.374 323.727 127.993 325.141 128.01C326.529 128.027 327.654 128.433 328.518 129.229C329.389 130.016 329.808 131.044 329.774 132.313L327.489 132.301C327.506 131.615 327.29 131.057 326.842 130.625C326.393 130.193 325.797 129.969 325.052 129.952C324.256 129.935 323.571 130.13 322.995 130.536C322.462 130.917 322.153 131.416 322.068 132.034C321.958 132.83 322.445 133.41 323.528 133.773L324.684 134.091C326.258 134.497 327.375 135.026 328.035 135.678C328.695 136.329 329 137.138 328.949 138.103C328.898 138.957 328.619 139.702 328.111 140.337C327.604 140.972 326.926 141.458 326.08 141.797C325.234 142.127 324.332 142.279 323.376 142.254C321.92 142.237 320.718 141.814 319.771 140.984C318.823 140.146 318.366 139.072 318.399 137.76L320.697 137.772C320.697 138.543 320.943 139.16 321.434 139.626C321.924 140.091 322.597 140.324 323.452 140.324C324.29 140.341 325.014 140.168 325.623 139.804C326.232 139.431 326.579 138.924 326.664 138.28ZM333.773 142H331.488L333.875 128.264H336.16L333.773 142ZM335.665 123.249C336.054 123.232 336.376 123.351 336.63 123.604C336.892 123.85 337.023 124.176 337.023 124.582C337.015 124.98 336.884 125.306 336.63 125.56C336.384 125.813 336.063 125.949 335.665 125.966C335.267 125.983 334.941 125.868 334.688 125.623C334.434 125.378 334.311 125.056 334.319 124.658C334.328 124.26 334.455 123.93 334.7 123.668C334.946 123.406 335.267 123.266 335.665 123.249ZM345.161 128.01C346.312 128.027 347.298 128.34 348.119 128.949C348.94 129.559 349.545 130.401 349.935 131.476C350.332 132.542 350.468 133.71 350.341 134.979L350.315 135.259C350.155 136.596 349.757 137.806 349.122 138.89C348.487 139.965 347.666 140.802 346.659 141.403C345.652 142.004 344.548 142.288 343.346 142.254C342.203 142.237 341.217 141.924 340.388 141.314C339.567 140.705 338.966 139.876 338.585 138.826C338.204 137.777 338.069 136.621 338.179 135.36C338.306 133.938 338.691 132.66 339.334 131.526C339.977 130.392 340.802 129.516 341.81 128.898C342.825 128.272 343.942 127.976 345.161 128.01ZM340.489 135.373C340.43 135.906 340.43 136.461 340.489 137.036C340.574 138.035 340.87 138.83 341.378 139.423C341.894 140.015 342.58 140.324 343.435 140.35C344.196 140.375 344.899 140.189 345.542 139.791C346.185 139.385 346.727 138.775 347.167 137.963C347.607 137.15 347.891 136.249 348.018 135.259C348.085 134.48 348.098 133.824 348.056 133.291C347.954 132.267 347.645 131.459 347.129 130.866C346.613 130.274 345.927 129.961 345.072 129.927C343.887 129.901 342.88 130.367 342.051 131.323C341.221 132.28 340.709 133.532 340.515 135.081L340.489 135.373ZM356.612 128.251L356.282 129.99C357.518 128.636 358.923 127.976 360.497 128.01C361.792 128.044 362.748 128.492 363.366 129.355C363.984 130.219 364.213 131.433 364.052 132.999L362.554 142H360.256L361.767 132.961C361.817 132.546 361.822 132.161 361.779 131.806C361.635 130.621 360.937 130.016 359.685 129.99C358.305 129.965 357.095 130.701 356.054 132.199L354.353 142H352.055L354.441 128.264L356.612 128.251ZM378.537 124.938L377.953 128.264H380.454L380.137 130.079H377.648L376.214 138.623C376.188 138.843 376.184 139.046 376.201 139.232C376.26 139.893 376.62 140.223 377.28 140.223C377.56 140.223 377.932 140.18 378.397 140.096L378.22 142.013C377.67 142.165 377.111 142.241 376.544 142.241C375.63 142.224 374.944 141.89 374.487 141.238C374.03 140.578 373.853 139.694 373.954 138.585L375.351 130.079H372.926L373.243 128.264H375.668L376.252 124.938H378.537ZM385.139 129.939C386.34 128.628 387.724 127.989 389.29 128.022C390.576 128.039 391.529 128.484 392.146 129.355C392.773 130.219 393.006 131.433 392.845 132.999L391.347 142H389.049L390.56 132.961C390.61 132.546 390.615 132.161 390.572 131.806C390.428 130.621 389.73 130.016 388.478 129.99C387.073 129.956 385.862 130.693 384.847 132.199L383.146 142H380.848L384.237 122.5H386.535L385.139 129.939ZM403.268 142C403.208 141.755 403.179 141.513 403.179 141.276L403.217 140.553C401.956 141.721 400.618 142.288 399.205 142.254C397.995 142.237 397.009 141.856 396.247 141.111C395.494 140.358 395.151 139.419 395.219 138.293C395.303 136.837 395.938 135.703 397.123 134.891C398.316 134.07 399.882 133.659 401.82 133.659L404.22 133.672L404.372 132.58C404.457 131.759 404.296 131.112 403.89 130.638C403.492 130.155 402.891 129.906 402.087 129.889C401.3 129.872 400.602 130.066 399.992 130.473C399.391 130.87 399.023 131.399 398.888 132.06L396.577 132.072C396.653 131.268 396.966 130.557 397.517 129.939C398.067 129.313 398.773 128.831 399.637 128.492C400.5 128.145 401.393 127.98 402.315 127.997C403.746 128.031 404.859 128.467 405.654 129.305C406.45 130.134 406.784 131.239 406.657 132.618L405.54 139.423L405.477 140.4C405.46 140.866 405.51 141.327 405.629 141.784L405.604 142H403.268ZM399.662 140.223C400.398 140.24 401.092 140.066 401.744 139.702C402.404 139.33 402.971 138.818 403.445 138.166L403.94 135.335L402.201 135.322C400.754 135.322 399.645 135.551 398.875 136.008C398.105 136.465 397.669 137.112 397.567 137.95C397.491 138.593 397.639 139.131 398.012 139.562C398.393 139.986 398.943 140.206 399.662 140.223ZM414.795 124.938L414.211 128.264H416.712L416.395 130.079H413.906L412.472 138.623C412.446 138.843 412.442 139.046 412.459 139.232C412.518 139.893 412.878 140.223 413.538 140.223C413.817 140.223 414.19 140.18 414.655 140.096L414.478 142.013C413.927 142.165 413.369 142.241 412.802 142.241C411.888 142.224 411.202 141.89 410.745 141.238C410.288 140.578 410.11 139.694 410.212 138.585L411.608 130.079H409.184L409.501 128.264H411.926L412.51 124.938H414.795ZM431.984 138.28C432.111 137.332 431.591 136.664 430.423 136.274L428.036 135.576C426.022 134.882 425.049 133.731 425.116 132.123C425.175 130.913 425.726 129.923 426.767 129.152C427.816 128.374 429.048 127.993 430.461 128.01C431.849 128.027 432.975 128.433 433.838 129.229C434.71 130.016 435.129 131.044 435.095 132.313L432.81 132.301C432.826 131.615 432.611 131.057 432.162 130.625C431.714 130.193 431.117 129.969 430.372 129.952C429.576 129.935 428.891 130.13 428.315 130.536C427.782 130.917 427.473 131.416 427.389 132.034C427.279 132.83 427.765 133.41 428.849 133.773L430.004 134.091C431.578 134.497 432.695 135.026 433.355 135.678C434.016 136.329 434.32 137.138 434.27 138.103C434.219 138.957 433.939 139.702 433.432 140.337C432.924 140.972 432.247 141.458 431.4 141.797C430.554 142.127 429.653 142.279 428.696 142.254C427.241 142.237 426.039 141.814 425.091 140.984C424.143 140.146 423.686 139.072 423.72 137.76L426.018 137.772C426.018 138.543 426.263 139.16 426.754 139.626C427.245 140.091 427.918 140.324 428.772 140.324C429.61 140.341 430.334 140.168 430.943 139.804C431.553 139.431 431.9 138.924 431.984 138.28ZM444.235 128.01C445.386 128.027 446.372 128.34 447.193 128.949C448.014 129.559 448.619 130.401 449.009 131.476C449.407 132.542 449.542 133.71 449.415 134.979L449.39 135.259C449.229 136.596 448.831 137.806 448.196 138.89C447.562 139.965 446.741 140.802 445.733 141.403C444.726 142.004 443.622 142.288 442.42 142.254C441.277 142.237 440.291 141.924 439.462 141.314C438.641 140.705 438.04 139.876 437.659 138.826C437.278 137.777 437.143 136.621 437.253 135.36C437.38 133.938 437.765 132.66 438.408 131.526C439.051 130.392 439.877 129.516 440.884 128.898C441.899 128.272 443.017 127.976 444.235 128.01ZM439.563 135.373C439.504 135.906 439.504 136.461 439.563 137.036C439.648 138.035 439.944 138.83 440.452 139.423C440.968 140.015 441.654 140.324 442.509 140.35C443.271 140.375 443.973 140.189 444.616 139.791C445.259 139.385 445.801 138.775 446.241 137.963C446.681 137.15 446.965 136.249 447.092 135.259C447.16 134.48 447.172 133.824 447.13 133.291C447.028 132.267 446.719 131.459 446.203 130.866C445.687 130.274 445.001 129.961 444.146 129.927C442.962 129.901 441.954 130.367 441.125 131.323C440.296 132.28 439.784 133.532 439.589 135.081L439.563 135.373ZM453.617 142H451.332L454.709 122.5H457.007L453.617 142ZM462.364 138.788L467.315 128.264H469.74L462.821 142H461.069L458.378 128.264H460.638L462.364 138.788ZM475.479 142.254C473.769 142.22 472.432 141.59 471.467 140.362C470.502 139.135 470.096 137.565 470.248 135.652L470.312 135.106C470.455 133.744 470.857 132.5 471.518 131.374C472.186 130.248 472.999 129.402 473.955 128.835C474.911 128.259 475.944 127.984 477.053 128.01C478.466 128.044 479.575 128.513 480.379 129.419C481.183 130.325 481.623 131.552 481.699 133.101C481.725 133.651 481.708 134.201 481.648 134.751L481.509 135.805H472.533C472.381 137.049 472.584 138.107 473.143 138.979C473.71 139.85 474.552 140.303 475.669 140.337C477.023 140.371 478.276 139.761 479.427 138.509L480.747 139.626C480.172 140.455 479.427 141.107 478.513 141.581C477.607 142.047 476.596 142.271 475.479 142.254ZM476.938 129.927C475.991 129.901 475.161 130.223 474.45 130.892C473.748 131.56 473.189 132.555 472.774 133.875L479.452 133.888L479.503 133.685C479.638 132.618 479.465 131.734 478.982 131.031C478.508 130.32 477.827 129.952 476.938 129.927ZM491.525 138.28C491.652 137.332 491.132 136.664 489.964 136.274L487.577 135.576C485.563 134.882 484.59 133.731 484.657 132.123C484.716 130.913 485.267 129.923 486.308 129.152C487.357 128.374 488.589 127.993 490.002 128.01C491.39 128.027 492.516 128.433 493.379 129.229C494.251 130.016 494.67 131.044 494.636 132.313L492.351 132.301C492.368 131.615 492.152 131.057 491.703 130.625C491.255 130.193 490.658 129.969 489.913 129.952C489.118 129.935 488.432 130.13 487.856 130.536C487.323 130.917 487.014 131.416 486.93 132.034C486.82 132.83 487.306 133.41 488.39 133.773L489.545 134.091C491.119 134.497 492.236 135.026 492.896 135.678C493.557 136.329 493.861 137.138 493.811 138.103C493.76 138.957 493.48 139.702 492.973 140.337C492.465 140.972 491.788 141.458 490.941 141.797C490.095 142.127 489.194 142.279 488.237 142.254C486.782 142.237 485.58 141.814 484.632 140.984C483.684 140.146 483.227 139.072 483.261 137.76L485.559 137.772C485.559 138.543 485.804 139.16 486.295 139.626C486.786 140.091 487.459 140.324 488.313 140.324C489.151 140.341 489.875 140.168 490.484 139.804C491.094 139.431 491.441 138.924 491.525 138.28ZM510.149 128.01C511.3 128.027 512.286 128.34 513.107 128.949C513.928 129.559 514.534 130.401 514.923 131.476C515.321 132.542 515.456 133.71 515.329 134.979L515.304 135.259C515.143 136.596 514.745 137.806 514.11 138.89C513.476 139.965 512.655 140.802 511.647 141.403C510.64 142.004 509.536 142.288 508.334 142.254C507.191 142.237 506.205 141.924 505.376 141.314C504.555 140.705 503.954 139.876 503.573 138.826C503.192 137.777 503.057 136.621 503.167 135.36C503.294 133.938 503.679 132.66 504.322 131.526C504.965 130.392 505.791 129.516 506.798 128.898C507.813 128.272 508.931 127.976 510.149 128.01ZM505.478 135.373C505.418 135.906 505.418 136.461 505.478 137.036C505.562 138.035 505.858 138.83 506.366 139.423C506.882 140.015 507.568 140.324 508.423 140.35C509.185 140.375 509.887 140.189 510.53 139.791C511.174 139.385 511.715 138.775 512.155 137.963C512.595 137.15 512.879 136.249 513.006 135.259C513.074 134.48 513.086 133.824 513.044 133.291C512.942 132.267 512.633 131.459 512.117 130.866C511.601 130.274 510.915 129.961 510.061 129.927C508.876 129.901 507.868 130.367 507.039 131.323C506.21 132.28 505.698 133.532 505.503 135.081L505.478 135.373ZM521.601 128.251L521.271 129.99C522.506 128.636 523.911 127.976 525.485 128.01C526.78 128.044 527.737 128.492 528.354 129.355C528.972 130.219 529.201 131.433 529.04 132.999L527.542 142H525.244L526.755 132.961C526.806 132.546 526.81 132.161 526.768 131.806C526.624 130.621 525.925 130.016 524.673 129.99C523.293 129.965 522.083 130.701 521.042 132.199L519.341 142H517.043L519.43 128.264L521.601 128.251ZM537.025 142.254C535.316 142.22 533.979 141.59 533.014 140.362C532.049 139.135 531.643 137.565 531.795 135.652L531.858 135.106C532.002 133.744 532.404 132.5 533.064 131.374C533.733 130.248 534.546 129.402 535.502 128.835C536.458 128.259 537.491 127.984 538.6 128.01C540.013 128.044 541.122 128.513 541.926 129.419C542.73 130.325 543.17 131.552 543.246 133.101C543.271 133.651 543.255 134.201 543.195 134.751L543.056 135.805H534.08C533.928 137.049 534.131 138.107 534.689 138.979C535.257 139.85 536.099 140.303 537.216 140.337C538.57 140.371 539.823 139.761 540.974 138.509L542.294 139.626C541.718 140.455 540.974 141.107 540.06 141.581C539.154 142.047 538.143 142.271 537.025 142.254ZM538.485 129.927C537.537 129.901 536.708 130.223 535.997 130.892C535.295 131.56 534.736 132.555 534.321 133.875L540.999 133.888L541.05 133.685C541.185 132.618 541.012 131.734 540.529 131.031C540.055 130.32 539.374 129.952 538.485 129.927ZM558.569 128.01C559.72 128.027 560.706 128.34 561.527 128.949C562.348 129.559 562.953 130.401 563.343 131.476C563.741 132.542 563.876 133.71 563.749 134.979L563.724 135.259C563.563 136.596 563.165 137.806 562.53 138.89C561.896 139.965 561.075 140.802 560.067 141.403C559.06 142.004 557.956 142.288 556.754 142.254C555.611 142.237 554.625 141.924 553.796 141.314C552.975 140.705 552.374 139.876 551.993 138.826C551.612 137.777 551.477 136.621 551.587 135.36C551.714 133.938 552.099 132.66 552.742 131.526C553.385 130.392 554.211 129.516 555.218 128.898C556.233 128.272 557.351 127.976 558.569 128.01ZM553.897 135.373C553.838 135.906 553.838 136.461 553.897 137.036C553.982 138.035 554.278 138.83 554.786 139.423C555.302 140.015 555.988 140.324 556.843 140.35C557.604 140.375 558.307 140.189 558.95 139.791C559.593 139.385 560.135 138.775 560.575 137.963C561.015 137.15 561.299 136.249 561.426 135.259C561.493 134.48 561.506 133.824 561.464 133.291C561.362 132.267 561.053 131.459 560.537 130.866C560.021 130.274 559.335 129.961 558.48 129.927C557.296 129.901 556.288 130.367 555.459 131.323C554.63 132.28 554.118 133.532 553.923 135.081L553.897 135.373ZM566.58 142L568.662 130.079H566.542L566.859 128.264H568.967L569.195 126.639C569.415 125.259 569.949 124.18 570.795 123.401C571.684 122.589 572.818 122.191 574.197 122.208C574.629 122.208 575.175 122.28 575.835 122.424L575.556 124.341C575.149 124.256 574.739 124.205 574.324 124.188C573.529 124.188 572.881 124.438 572.382 124.938C571.891 125.428 571.586 126.084 571.468 126.905L571.265 128.264H574.108L573.791 130.079H570.947L568.878 142H566.58ZM586.791 124.938L586.207 128.264H588.708L588.391 130.079H585.902L584.468 138.623C584.442 138.843 584.438 139.046 584.455 139.232C584.514 139.893 584.874 140.223 585.534 140.223C585.813 140.223 586.186 140.18 586.651 140.096L586.474 142.013C585.924 142.165 585.365 142.241 584.798 142.241C583.884 142.224 583.198 141.89 582.741 141.238C582.284 140.578 582.106 139.694 582.208 138.585L583.604 130.079H581.18L581.497 128.264H583.922L584.506 124.938H586.791ZM593.393 129.939C594.594 128.628 595.978 127.989 597.544 128.022C598.83 128.039 599.783 128.484 600.4 129.355C601.027 130.219 601.259 131.433 601.099 132.999L599.601 142H597.303L598.813 132.961C598.864 132.546 598.868 132.161 598.826 131.806C598.682 130.621 597.984 130.016 596.731 129.99C595.326 129.956 594.116 130.693 593.101 132.199L591.399 142H589.102L592.491 122.5H594.789L593.393 129.939ZM609.059 142.254C607.349 142.22 606.012 141.59 605.047 140.362C604.082 139.135 603.676 137.565 603.828 135.652L603.892 135.106C604.035 133.744 604.438 132.5 605.098 131.374C605.766 130.248 606.579 129.402 607.535 128.835C608.492 128.259 609.524 127.984 610.633 128.01C612.046 128.044 613.155 128.513 613.959 129.419C614.763 130.325 615.203 131.552 615.279 133.101C615.305 133.651 615.288 134.201 615.229 134.751L615.089 135.805H606.113C605.961 137.049 606.164 138.107 606.723 138.979C607.29 139.85 608.132 140.303 609.249 140.337C610.603 140.371 611.856 139.761 613.007 138.509L614.327 139.626C613.752 140.455 613.007 141.107 612.093 141.581C611.187 142.047 610.176 142.271 609.059 142.254ZM610.519 129.927C609.571 129.901 608.741 130.223 608.03 130.892C607.328 131.56 606.769 132.555 606.354 133.875L613.032 133.888L613.083 133.685C613.218 132.618 613.045 131.734 612.562 131.031C612.089 130.32 611.407 129.952 610.519 129.927ZM628.914 142.254C627.204 142.22 625.867 141.59 624.902 140.362C623.938 139.135 623.531 137.565 623.684 135.652L623.747 135.106C623.891 133.744 624.293 132.5 624.953 131.374C625.622 130.248 626.434 129.402 627.391 128.835C628.347 128.259 629.38 127.984 630.488 128.01C631.902 128.044 633.01 128.513 633.814 129.419C634.618 130.325 635.059 131.552 635.135 133.101C635.16 133.651 635.143 134.201 635.084 134.751L634.944 135.805H625.969C625.816 137.049 626.02 138.107 626.578 138.979C627.145 139.85 627.987 140.303 629.104 140.337C630.459 140.371 631.711 139.761 632.862 138.509L634.183 139.626C633.607 140.455 632.862 141.107 631.948 141.581C631.043 142.047 630.031 142.271 628.914 142.254ZM630.374 129.927C629.426 129.901 628.597 130.223 627.886 130.892C627.183 131.56 626.625 132.555 626.21 133.875L632.888 133.888L632.938 133.685C633.074 132.618 632.9 131.734 632.418 131.031C631.944 130.32 631.263 129.952 630.374 129.927ZM642.358 133.266L646.091 128.264H648.909L643.399 135.17L646.751 142H644.25L641.978 136.871L638.105 142H635.3L640.975 134.941L637.725 128.264H640.238L642.358 133.266ZM654.787 142.254C653.077 142.22 651.74 141.59 650.775 140.362C649.811 139.135 649.404 137.565 649.557 135.652L649.62 135.106C649.764 133.744 650.166 132.5 650.826 131.374C651.495 130.248 652.307 129.402 653.264 128.835C654.22 128.259 655.253 127.984 656.361 128.01C657.775 128.044 658.883 128.513 659.688 129.419C660.492 130.325 660.932 131.552 661.008 133.101C661.033 133.651 661.016 134.201 660.957 134.751L660.817 135.805H651.842C651.689 137.049 651.893 138.107 652.451 138.979C653.018 139.85 653.86 140.303 654.978 140.337C656.332 140.371 657.584 139.761 658.735 138.509L660.056 139.626C659.48 140.455 658.735 141.107 657.821 141.581C656.916 142.047 655.904 142.271 654.787 142.254ZM656.247 129.927C655.299 129.901 654.47 130.223 653.759 130.892C653.056 131.56 652.498 132.555 652.083 133.875L658.761 133.888L658.812 133.685C658.947 132.618 658.773 131.734 658.291 131.031C657.817 130.32 657.136 129.952 656.247 129.927ZM670.872 130.358L669.793 130.244C668.32 130.244 667.161 130.909 666.314 132.237L664.626 142H662.328L664.715 128.264L666.937 128.251L666.594 129.851C667.567 128.573 668.714 127.951 670.034 127.984C670.313 127.984 670.677 128.048 671.126 128.175L670.872 130.358ZM676.534 140.35C677.355 140.367 678.096 140.13 678.756 139.639C679.416 139.139 679.848 138.488 680.051 137.684L682.222 137.671C682.095 138.534 681.748 139.321 681.181 140.032C680.622 140.743 679.915 141.298 679.061 141.695C678.206 142.093 677.33 142.279 676.433 142.254C675.29 142.237 674.321 141.941 673.525 141.365C672.738 140.781 672.159 139.973 671.786 138.94C671.414 137.899 671.287 136.731 671.405 135.437L671.469 134.802C671.63 133.481 672.015 132.301 672.624 131.26C673.233 130.219 674.029 129.41 675.011 128.835C675.993 128.251 677.076 127.976 678.261 128.01C679.7 128.044 680.851 128.526 681.714 129.457C682.577 130.388 683.009 131.569 683.009 132.999L680.863 132.986C680.846 132.089 680.597 131.366 680.114 130.815C679.632 130.257 678.98 129.961 678.159 129.927C676.966 129.901 675.971 130.346 675.176 131.26C674.389 132.174 673.898 133.452 673.703 135.094L673.665 135.424C673.614 135.965 673.606 136.524 673.64 137.1C673.699 138.09 673.978 138.873 674.478 139.448C674.977 140.024 675.662 140.324 676.534 140.35ZM686.551 142H684.266L686.652 128.264H688.938L686.551 142ZM688.442 123.249C688.832 123.232 689.153 123.351 689.407 123.604C689.67 123.85 689.801 124.176 689.801 124.582C689.792 124.98 689.661 125.306 689.407 125.56C689.162 125.813 688.84 125.949 688.442 125.966C688.045 125.983 687.719 125.868 687.465 125.623C687.211 125.378 687.088 125.056 687.097 124.658C687.105 124.26 687.232 123.93 687.478 123.668C687.723 123.406 688.045 123.266 688.442 123.249ZM698.814 138.28C698.941 137.332 698.421 136.664 697.253 136.274L694.866 135.576C692.852 134.882 691.879 133.731 691.946 132.123C692.006 130.913 692.556 129.923 693.597 129.152C694.646 128.374 695.878 127.993 697.291 128.01C698.679 128.027 699.805 128.433 700.668 129.229C701.54 130.016 701.959 131.044 701.925 132.313L699.64 132.301C699.657 131.615 699.441 131.057 698.992 130.625C698.544 130.193 697.947 129.969 697.202 129.952C696.407 129.935 695.721 130.13 695.146 130.536C694.612 130.917 694.303 131.416 694.219 132.034C694.109 132.83 694.595 133.41 695.679 133.773L696.834 134.091C698.408 134.497 699.525 135.026 700.186 135.678C700.846 136.329 701.15 137.138 701.1 138.103C701.049 138.957 700.77 139.702 700.262 140.337C699.754 140.972 699.077 141.458 698.23 141.797C697.384 142.127 696.483 142.279 695.526 142.254C694.071 142.237 692.869 141.814 691.921 140.984C690.973 140.146 690.516 139.072 690.55 137.76L692.848 137.772C692.848 138.543 693.093 139.16 693.584 139.626C694.075 140.091 694.748 140.324 695.603 140.324C696.44 140.341 697.164 140.168 697.773 139.804C698.383 139.431 698.73 138.924 698.814 138.28ZM709.377 142.254C707.667 142.22 706.33 141.59 705.365 140.362C704.4 139.135 703.994 137.565 704.146 135.652L704.21 135.106C704.354 133.744 704.756 132.5 705.416 131.374C706.085 130.248 706.897 129.402 707.854 128.835C708.81 128.259 709.842 127.984 710.951 128.01C712.365 128.044 713.473 128.513 714.277 129.419C715.081 130.325 715.521 131.552 715.598 133.101C715.623 133.651 715.606 134.201 715.547 134.751L715.407 135.805H706.432C706.279 137.049 706.482 138.107 707.041 138.979C707.608 139.85 708.45 140.303 709.567 140.337C710.922 140.371 712.174 139.761 713.325 138.509L714.646 139.626C714.07 140.455 713.325 141.107 712.411 141.581C711.506 142.047 710.494 142.271 709.377 142.254ZM710.837 129.927C709.889 129.901 709.06 130.223 708.349 130.892C707.646 131.56 707.088 132.555 706.673 133.875L713.351 133.888L713.401 133.685C713.537 132.618 713.363 131.734 712.881 131.031C712.407 130.32 711.726 129.952 710.837 129.927ZM725.424 138.28C725.551 137.332 725.03 136.664 723.862 136.274L721.476 135.576C719.461 134.882 718.488 133.731 718.556 132.123C718.615 130.913 719.165 129.923 720.206 129.152C721.256 128.374 722.487 127.993 723.9 128.01C725.288 128.027 726.414 128.433 727.277 129.229C728.149 130.016 728.568 131.044 728.534 132.313L726.249 132.301C726.266 131.615 726.05 131.057 725.602 130.625C725.153 130.193 724.556 129.969 723.812 129.952C723.016 129.935 722.33 130.13 721.755 130.536C721.222 130.917 720.913 131.416 720.828 132.034C720.718 132.83 721.205 133.41 722.288 133.773L723.443 134.091C725.018 134.497 726.135 135.026 726.795 135.678C727.455 136.329 727.76 137.138 727.709 138.103C727.658 138.957 727.379 139.702 726.871 140.337C726.363 140.972 725.686 141.458 724.84 141.797C723.993 142.127 723.092 142.279 722.136 142.254C720.68 142.237 719.478 141.814 718.53 140.984C717.582 140.146 717.125 139.072 717.159 137.76L719.457 137.772C719.457 138.543 719.702 139.16 720.193 139.626C720.684 140.091 721.357 140.324 722.212 140.324C723.05 140.341 723.773 140.168 724.383 139.804C724.992 139.431 725.339 138.924 725.424 138.28ZM738.906 142H736.621L739.008 128.264H741.293L738.906 142ZM740.798 123.249C741.187 123.232 741.509 123.351 741.763 123.604C742.025 123.85 742.156 124.176 742.156 124.582C742.148 124.98 742.017 125.306 741.763 125.56C741.517 125.813 741.196 125.949 740.798 125.966C740.4 125.983 740.074 125.868 739.82 125.623C739.566 125.378 739.444 125.056 739.452 124.658C739.461 124.26 739.588 123.93 739.833 123.668C740.078 123.406 740.4 123.266 740.798 123.249ZM747.222 128.251L746.892 129.99C748.127 128.636 749.532 127.976 751.106 128.01C752.401 128.044 753.358 128.492 753.976 129.355C754.593 130.219 754.822 131.433 754.661 132.999L753.163 142H750.865L752.376 132.961C752.427 132.546 752.431 132.161 752.389 131.806C752.245 130.621 751.547 130.016 750.294 129.99C748.914 129.965 747.704 130.701 746.663 132.199L744.962 142H742.664L745.051 128.264L747.222 128.251ZM769.146 124.938L768.562 128.264H771.063L770.746 130.079H768.258L766.823 138.623C766.798 138.843 766.794 139.046 766.811 139.232C766.87 139.893 767.229 140.223 767.89 140.223C768.169 140.223 768.541 140.18 769.007 140.096L768.829 142.013C768.279 142.165 767.72 142.241 767.153 142.241C766.239 142.224 765.554 141.89 765.097 141.238C764.64 140.578 764.462 139.694 764.563 138.585L765.96 130.079H763.535L763.853 128.264H766.277L766.861 124.938H769.146ZM775.748 129.939C776.95 128.628 778.334 127.989 779.899 128.022C781.186 128.039 782.138 128.484 782.756 129.355C783.382 130.219 783.615 131.433 783.454 132.999L781.956 142H779.658L781.169 132.961C781.22 132.546 781.224 132.161 781.182 131.806C781.038 130.621 780.34 130.016 779.087 129.99C777.682 129.956 776.472 130.693 775.456 132.199L773.755 142H771.457L774.847 122.5H777.145L775.748 129.939ZM787.961 142H785.676L788.062 128.264H790.348L787.961 142ZM789.853 123.249C790.242 123.232 790.563 123.351 790.817 123.604C791.08 123.85 791.211 124.176 791.211 124.582C791.202 124.98 791.071 125.306 790.817 125.56C790.572 125.813 790.25 125.949 789.853 125.966C789.455 125.983 789.129 125.868 788.875 125.623C788.621 125.378 788.498 125.056 788.507 124.658C788.515 124.26 788.642 123.93 788.888 123.668C789.133 123.406 789.455 123.266 789.853 123.249ZM800.225 138.28C800.352 137.332 799.831 136.664 798.663 136.274L796.276 135.576C794.262 134.882 793.289 133.731 793.356 132.123C793.416 130.913 793.966 129.923 795.007 129.152C796.056 128.374 797.288 127.993 798.701 128.01C800.089 128.027 801.215 128.433 802.078 129.229C802.95 130.016 803.369 131.044 803.335 132.313L801.05 132.301C801.067 131.615 800.851 131.057 800.402 130.625C799.954 130.193 799.357 129.969 798.612 129.952C797.817 129.935 797.131 130.13 796.556 130.536C796.022 130.917 795.714 131.416 795.629 132.034C795.519 132.83 796.006 133.41 797.089 133.773L798.244 134.091C799.818 134.497 800.936 135.026 801.596 135.678C802.256 136.329 802.561 137.138 802.51 138.103C802.459 138.957 802.18 139.702 801.672 140.337C801.164 140.972 800.487 141.458 799.641 141.797C798.794 142.127 797.893 142.279 796.937 142.254C795.481 142.237 794.279 141.814 793.331 140.984C792.383 140.146 791.926 139.072 791.96 137.76L794.258 137.772C794.258 138.543 794.503 139.16 794.994 139.626C795.485 140.091 796.158 140.324 797.013 140.324C797.851 140.341 798.574 140.168 799.184 139.804C799.793 139.431 800.14 138.924 800.225 138.28ZM817.021 140.35C817.841 140.367 818.582 140.13 819.242 139.639C819.902 139.139 820.334 138.488 820.537 137.684L822.708 137.671C822.581 138.534 822.234 139.321 821.667 140.032C821.108 140.743 820.402 141.298 819.547 141.695C818.692 142.093 817.816 142.279 816.919 142.254C815.776 142.237 814.807 141.941 814.012 141.365C813.225 140.781 812.645 139.973 812.272 138.94C811.9 137.899 811.773 136.731 811.892 135.437L811.955 134.802C812.116 133.481 812.501 132.301 813.11 131.26C813.72 130.219 814.515 129.41 815.497 128.835C816.479 128.251 817.562 127.976 818.747 128.01C820.186 128.044 821.337 128.526 822.2 129.457C823.063 130.388 823.495 131.569 823.495 132.999L821.35 132.986C821.333 132.089 821.083 131.366 820.601 130.815C820.118 130.257 819.466 129.961 818.646 129.927C817.452 129.901 816.458 130.346 815.662 131.26C814.875 132.174 814.384 133.452 814.189 135.094L814.151 135.424C814.101 135.965 814.092 136.524 814.126 137.1C814.185 138.09 814.465 138.873 814.964 139.448C815.463 140.024 816.149 140.324 817.021 140.35ZM832.179 128.01C833.33 128.027 834.316 128.34 835.137 128.949C835.958 129.559 836.563 130.401 836.952 131.476C837.35 132.542 837.485 133.71 837.358 134.979L837.333 135.259C837.172 136.596 836.774 137.806 836.14 138.89C835.505 139.965 834.684 140.802 833.677 141.403C832.67 142.004 831.565 142.288 830.363 142.254C829.221 142.237 828.235 141.924 827.405 141.314C826.584 140.705 825.983 139.876 825.603 138.826C825.222 137.777 825.086 136.621 825.196 135.36C825.323 133.938 825.708 132.66 826.352 131.526C826.995 130.392 827.82 129.516 828.827 128.898C829.843 128.272 830.96 127.976 832.179 128.01ZM827.507 135.373C827.448 135.906 827.448 136.461 827.507 137.036C827.591 138.035 827.888 138.83 828.396 139.423C828.912 140.015 829.597 140.324 830.452 140.35C831.214 140.375 831.916 140.189 832.56 139.791C833.203 139.385 833.744 138.775 834.185 137.963C834.625 137.15 834.908 136.249 835.035 135.259C835.103 134.48 835.116 133.824 835.073 133.291C834.972 132.267 834.663 131.459 834.146 130.866C833.63 130.274 832.945 129.961 832.09 129.927C830.905 129.901 829.898 130.367 829.068 131.323C828.239 132.28 827.727 133.532 827.532 135.081L827.507 135.373ZM847.794 140.642C846.719 141.75 845.352 142.288 843.693 142.254C842.382 142.22 841.408 141.75 840.773 140.845C840.147 139.939 839.914 138.703 840.075 137.138L841.548 128.264H843.846L842.36 137.176C842.318 137.548 842.31 137.912 842.335 138.268C842.377 138.877 842.559 139.355 842.881 139.702C843.202 140.049 843.651 140.235 844.227 140.261C845.868 140.312 847.138 139.647 848.035 138.268L849.762 128.264H852.06L849.673 142H847.502L847.794 140.642ZM861.657 130.358L860.578 130.244C859.105 130.244 857.946 130.909 857.1 132.237L855.411 142H853.113L855.5 128.264L857.722 128.251L857.379 129.851C858.352 128.573 859.499 127.951 860.819 127.984C861.099 127.984 861.463 128.048 861.911 128.175L861.657 130.358ZM870.277 138.28C870.404 137.332 869.884 136.664 868.716 136.274L866.329 135.576C864.315 134.882 863.341 133.731 863.409 132.123C863.468 130.913 864.019 129.923 865.06 129.152C866.109 128.374 867.34 127.993 868.754 128.01C870.142 128.027 871.268 128.433 872.131 129.229C873.003 130.016 873.422 131.044 873.388 132.313L871.103 132.301C871.119 131.615 870.904 131.057 870.455 130.625C870.007 130.193 869.41 129.969 868.665 129.952C867.869 129.935 867.184 130.13 866.608 130.536C866.075 130.917 865.766 131.416 865.682 132.034C865.572 132.83 866.058 133.41 867.142 133.773L868.297 134.091C869.871 134.497 870.988 135.026 871.648 135.678C872.309 136.329 872.613 137.138 872.562 138.103C872.512 138.957 872.232 139.702 871.725 140.337C871.217 140.972 870.54 141.458 869.693 141.797C868.847 142.127 867.946 142.279 866.989 142.254C865.534 142.237 864.332 141.814 863.384 140.984C862.436 140.146 861.979 139.072 862.013 137.76L864.311 137.772C864.311 138.543 864.556 139.16 865.047 139.626C865.538 140.091 866.211 140.324 867.065 140.324C867.903 140.341 868.627 140.168 869.236 139.804C869.846 139.431 870.193 138.924 870.277 138.28ZM880.84 142.254C879.13 142.22 877.793 141.59 876.828 140.362C875.863 139.135 875.457 137.565 875.609 135.652L875.673 135.106C875.817 133.744 876.219 132.5 876.879 131.374C877.548 130.248 878.36 129.402 879.316 128.835C880.273 128.259 881.305 127.984 882.414 128.01C883.827 128.044 884.936 128.513 885.74 129.419C886.544 130.325 886.984 131.552 887.061 133.101C887.086 133.651 887.069 134.201 887.01 134.751L886.87 135.805H877.895C877.742 137.049 877.945 138.107 878.504 138.979C879.071 139.85 879.913 140.303 881.03 140.337C882.384 140.371 883.637 139.761 884.788 138.509L886.108 139.626C885.533 140.455 884.788 141.107 883.874 141.581C882.968 142.047 881.957 142.271 880.84 142.254ZM882.3 129.927C881.352 129.901 880.522 130.223 879.812 130.892C879.109 131.56 878.55 132.555 878.136 133.875L884.813 133.888L884.864 133.685C885 132.618 884.826 131.734 884.344 131.031C883.87 130.32 883.188 129.952 882.3 129.927Z" fill="#828282"/>
</svg>
